<svg width="61" height="30" viewBox="0 0 61 30" fill="none" xmlns="http://www.w3.org/2000/svg">
<path d="M16.2999 0.181977C15.7494 0.283399 15.0104 0.428286 14.6772 0.500733C13.9383 0.660108 12.1272 1.57291 11.678 2.02206C11.4896 2.19592 11.1854 2.47121 10.997 2.64508C10.3305 3.21015 9.83791 3.87663 9.3453 4.84738C8.43251 6.60054 8.40353 6.87581 8.40353 13.193C8.40353 19.2058 8.37456 19.5536 7.73705 20.1911C7.31686 20.6113 5.75206 21.3936 4.49153 21.8283C1.30399 22.9005 0 24.2045 0 26.2909C0 27.4934 0.231821 28.0875 0.941775 28.8119C1.75315 29.6088 2.50657 29.8551 3.95545 29.7682C4.91172 29.7102 5.36088 29.5943 6.12879 29.2176C7.795 28.4207 9.12797 26.6676 9.54816 24.7551C9.64956 24.2334 9.70753 21.3936 9.70753 15.9893C9.70753 7.1656 9.73651 6.91929 10.6058 5.28206C11.8084 3.02179 14.4309 1.48597 17.2707 1.35557L18.0386 1.3266L18.0821 7.22355C18.111 13.106 18.111 13.1205 17.8068 13.2799C17.6329 13.3813 17.3721 13.4103 17.2128 13.3813C17.0534 13.3378 16.7636 13.3523 16.5752 13.4248L16.2275 13.5697L16.2565 20.9155L16.2999 28.2758L18.7341 28.3193L21.1537 28.3483V20.8865C21.1537 12.5989 21.2551 13.3668 20.2119 13.4103C19.9801 13.4248 19.7048 13.3813 19.6034 13.3089C19.3571 13.1495 19.3136 1.55842 19.5599 1.39904C19.7773 1.26864 21.1682 1.48597 22.3128 1.84819C23.8052 2.32632 24.8918 2.97832 26.1379 4.16642L27.3115 5.28206V10.7443C27.3115 13.7435 27.2825 16.2646 27.239 16.3225C27.1956 16.395 26.8044 16.4674 26.3697 16.4964L25.5728 16.5399L25.5293 22.4368L25.5004 28.3483H30.4266V16.4674H29.5572C29.0791 16.4674 28.6879 16.424 28.6734 16.3515C28.6734 16.2936 28.6444 14.5259 28.601 12.4105C28.5285 7.49885 28.6589 7.20907 29.7601 9.87499C30.0643 10.585 30.6729 11.9324 31.1222 12.8452C32.3825 15.4242 33.701 16.5688 35.599 16.7282L36.4975 16.8007L36.5409 18.7567C36.5843 21.0314 36.5554 21.1039 35.4832 21.1039H34.7731V28.3483H39.6995V21.1039H38.83C37.7578 21.1039 37.787 21.1618 37.8449 18.4234L37.8883 16.4095L39.3371 15.6416C42.2349 14.0912 43.4087 13.5697 44.4809 13.3523C45.0748 13.2219 45.6399 13.164 45.7556 13.2074C45.9007 13.2654 45.9296 13.5841 45.8717 14.6853C45.8283 15.4677 45.7994 16.3225 45.7994 16.5688L45.7846 17.047H44.0461V28.3483L46.4802 28.3193L48.8998 28.2758L48.9432 22.6687L48.9722 17.0615L48.074 17.018L47.1613 16.9745L47.1176 15.2214C47.0741 13.1205 47.1176 13.0336 48.2045 13.2944C50.6241 13.8884 52.9421 16.1342 53.8262 18.7567C54.3185 20.22 54.478 21.6399 54.478 24.6391C54.478 27.1892 54.4925 27.3196 54.8401 27.9716C55.5357 29.2756 56.6368 29.9855 57.9553 30C58.8535 30 59.5636 29.6957 59.9257 29.1452C60.7663 27.8701 60.1431 26.146 58.6072 25.523C58.3756 25.4215 57.6801 25.1318 57.0571 24.8855C56.4484 24.6247 55.8978 24.3059 55.8544 24.1755C55.7965 24.0451 55.6952 23.0164 55.637 21.9008C55.4923 19.5391 55.2749 18.5828 54.4491 16.9456C53.7969 15.6271 52.3047 13.9464 51.1457 13.1785C49.1461 11.86 46.3062 11.4833 43.7563 12.1787C42.7276 12.454 39.9603 13.7001 39.6995 14.0043C39.6124 14.1058 37.8883 14.9316 37.2362 15.1779C36.6277 15.4242 35.0918 15.4098 34.6429 15.1634C33.5418 14.5839 32.2956 12.6859 31.18 9.87499C30.4845 8.13634 29.224 5.81815 28.3112 4.63005C27.4563 3.5144 25.4714 1.68881 25.1091 1.68881C25.0077 1.68881 24.9208 1.61637 24.9208 1.54393C24.9208 1.457 24.7904 1.39904 24.631 1.39904C24.4717 1.39904 24.3413 1.3266 24.3413 1.25415C24.3413 1.16722 24.2398 1.10926 24.1239 1.10926C24.008 1.10926 23.7907 1.05131 23.6458 0.964374C22.1534 0.124021 18.5892 -0.252688 16.2999 0.181977Z" fill="#52514C"/>
</svg>
