<svg width="50" height="50" viewBox="0 0 50 50" fill="none" xmlns="http://www.w3.org/2000/svg">
<path d="M14.646 0.174997C11.986 0.300497 10.1695 0.724997 8.58154 1.349C6.93804 1.9895 5.54504 2.849 4.15904 4.24C2.77304 5.631 1.91954 7.025 1.28354 8.671C0.668041 10.2625 0.251041 12.0805 0.133541 14.742C0.0160406 17.4035 -0.00995946 18.259 0.00304054 25.048C0.0160405 31.837 0.0460405 32.688 0.175041 35.355C0.302041 38.0145 0.725041 39.8305 1.34904 41.419C1.99054 43.0625 2.84904 44.455 4.24054 45.8415C5.63204 47.228 7.02504 48.0795 8.67504 48.7165C10.265 49.331 12.0835 49.75 14.7445 49.8665C17.4055 49.983 18.262 50.01 25.049 49.997C31.836 49.984 32.6905 49.954 35.357 49.8275C38.0235 49.701 39.83 49.275 41.419 48.654C43.0625 48.011 44.456 47.154 45.8415 45.762C47.227 44.37 48.08 42.975 48.7155 41.328C49.3315 39.738 49.75 37.9195 49.8655 35.2605C49.982 32.592 50.0095 31.74 49.9965 24.952C49.9835 18.164 49.953 17.313 49.8265 14.647C49.7 11.981 49.2765 10.1705 48.653 8.581C48.0105 6.9375 47.153 5.546 45.762 4.1585C44.371 2.771 42.975 1.9185 41.3285 1.2845C39.7375 0.668997 37.92 0.249497 35.259 0.134497C32.598 0.0194966 31.7415 -0.0100034 24.952 0.00299662C18.1625 0.0159966 17.3125 0.0449966 14.646 0.174997ZM14.938 45.369C12.5005 45.263 11.177 44.858 10.295 44.519C9.12704 44.069 8.29504 43.525 7.41604 42.6545C6.53704 41.784 5.99704 40.949 5.54104 39.7835C5.19854 38.9015 4.78604 37.5795 4.67204 35.142C4.54804 32.5075 4.52204 31.7165 4.50754 25.042C4.49304 18.3675 4.51854 17.5775 4.63404 14.942C4.73804 12.5065 5.14554 11.1815 5.48404 10.3C5.93404 9.1305 6.47604 8.3 7.34854 7.4215C8.22104 6.543 9.05354 6.002 10.22 5.546C11.101 5.202 12.423 4.793 14.8595 4.677C17.496 4.552 18.286 4.527 24.9595 4.5125C31.633 4.498 32.425 4.523 35.0625 4.639C37.498 4.745 38.8235 5.1485 39.704 5.489C40.8725 5.939 41.704 6.4795 42.5825 7.3535C43.461 8.2275 44.0025 9.057 44.4585 10.226C44.803 11.1045 45.212 12.426 45.327 14.864C45.4525 17.5005 45.481 18.291 45.493 24.964C45.505 31.637 45.4815 32.4295 45.366 35.064C45.2595 37.5015 44.8555 38.8255 44.516 39.7085C44.066 40.876 43.5235 41.7085 42.6505 42.5865C41.7775 43.4645 40.946 44.0055 39.779 44.4615C38.899 44.805 37.5755 45.215 35.141 45.331C32.5045 45.455 31.7145 45.481 25.0385 45.4955C18.3625 45.51 17.575 45.483 14.9385 45.369M35.3185 11.6385C35.3195 12.2319 35.4965 12.8116 35.827 13.3045C36.1575 13.7973 36.6267 14.181 37.1753 14.4071C37.724 14.6333 38.3273 14.6916 38.9091 14.5748C39.4909 14.458 40.0249 14.1713 40.4437 13.7509C40.8626 13.3306 41.1473 12.7954 41.262 12.2132C41.3767 11.631 41.3161 11.0279 41.088 10.4801C40.8598 9.93235 40.4744 9.46453 39.9804 9.13582C39.4863 8.80712 38.9059 8.63231 38.3125 8.6335C37.5171 8.63509 36.7548 8.95255 36.1933 9.51606C35.6319 10.0796 35.3172 10.843 35.3185 11.6385ZM12.1635 25.025C12.1775 32.115 17.9355 37.8495 25.024 37.836C32.1125 37.8225 37.851 32.065 37.8375 24.975C37.824 17.885 32.0645 12.149 24.975 12.163C17.8855 12.177 12.15 17.936 12.1635 25.025ZM16.6665 25.016C16.6633 23.3678 17.1488 21.7556 18.0618 20.3834C18.9748 19.0111 20.2742 17.9404 21.7957 17.3067C23.3172 16.6729 24.9925 16.5046 26.6096 16.8229C28.2268 17.1413 29.7133 17.932 30.881 19.0952C32.0488 20.2583 32.8454 21.7416 33.1702 23.3575C33.4949 24.9734 33.3332 26.6494 32.7055 28.1733C32.0778 29.6973 31.0122 31.001 29.6436 31.9194C28.275 32.8378 26.6647 33.3297 25.0165 33.333C23.9221 33.3353 22.838 33.122 21.826 32.7052C20.8141 32.2885 19.8941 31.6765 19.1187 30.9041C18.3433 30.1318 17.7277 29.2143 17.3069 28.204C16.8862 27.1937 16.6686 26.1104 16.6665 25.016Z" fill="#52514C"/>
</svg>
