<svg width="179" height="30" viewBox="0 0 179 30" fill="none" xmlns="http://www.w3.org/2000/svg">
<g clip-path="url(#clip0_434_2)">
<path d="M16.2999 0.181977C15.7494 0.283399 15.0104 0.428286 14.6772 0.500733C13.9383 0.660108 12.1272 1.57291 11.678 2.02206C11.4896 2.19592 11.1854 2.47121 10.997 2.64508C10.3305 3.21015 9.83791 3.87663 9.3453 4.84738C8.43251 6.60054 8.40353 6.87581 8.40353 13.193C8.40353 19.2058 8.37456 19.5536 7.73705 20.1911C7.31686 20.6113 5.75206 21.3936 4.49153 21.8283C1.30399 22.9005 0 24.2045 0 26.2909C0 27.4934 0.231821 28.0875 0.941775 28.8119C1.75315 29.6088 2.50657 29.8551 3.95545 29.7682C4.91172 29.7102 5.36088 29.5943 6.12879 29.2176C7.795 28.4207 9.12797 26.6676 9.54816 24.7551C9.64955 24.2334 9.70753 21.3936 9.70753 15.9893C9.70753 7.1656 9.73651 6.91929 10.6058 5.28206C11.8084 3.02179 14.4309 1.48597 17.2707 1.35557L18.0386 1.3266L18.0821 7.22355C18.111 13.106 18.111 13.1205 17.8068 13.2799C17.6329 13.3813 17.3721 13.4103 17.2128 13.3813C17.0534 13.3378 16.7636 13.3523 16.5752 13.4248L16.2275 13.5697L16.2565 20.9155L16.2999 28.2758L18.7341 28.3193L21.1537 28.3483V20.8865C21.1537 12.5989 21.2551 13.3668 20.2119 13.4103C19.9801 13.4248 19.7048 13.3813 19.6034 13.3089C19.3571 13.1495 19.3136 1.55842 19.5599 1.39904C19.7773 1.26864 21.1682 1.48597 22.3128 1.84819C23.8052 2.32632 24.8918 2.97832 26.1379 4.16642L27.3115 5.28206V10.7443C27.3115 13.7435 27.2825 16.2646 27.239 16.3225C27.1956 16.395 26.8044 16.4674 26.3697 16.4964L25.5728 16.5399L25.5293 22.4368L25.5004 28.3483H30.4266V16.4674H29.5572C29.0791 16.4674 28.6879 16.424 28.6734 16.3515C28.6734 16.2936 28.6444 14.5259 28.601 12.4105C28.5285 7.49885 28.6589 7.20907 29.7601 9.87499C30.0643 10.585 30.6729 11.9324 31.1222 12.8452C32.3825 15.4242 33.701 16.5688 35.599 16.7282L36.4975 16.8007L36.5409 18.7567C36.5843 21.0314 36.5554 21.1039 35.4832 21.1039H34.7731V28.3483H39.6995V21.1039H38.83C37.7578 21.1039 37.787 21.1618 37.8449 18.4234L37.8883 16.4095L39.3371 15.6416C42.2349 14.0912 43.4087 13.5697 44.4809 13.3523C45.0748 13.2219 45.6399 13.164 45.7556 13.2074C45.9007 13.2654 45.9296 13.5841 45.8717 14.6853C45.8283 15.4677 45.7994 16.3225 45.7994 16.5688L45.7846 17.047H44.0461V28.3483L46.4802 28.3193L48.8998 28.2758L48.9432 22.6687L48.9722 17.0615L48.074 17.018L47.1613 16.9745L47.1176 15.2214C47.0741 13.1205 47.1176 13.0336 48.2045 13.2944C50.6241 13.8884 52.9421 16.1342 53.8262 18.7567C54.3185 20.22 54.478 21.6399 54.478 24.6391C54.478 27.1892 54.4925 27.3196 54.8401 27.9716C55.5357 29.2756 56.6368 29.9855 57.9553 30C58.8535 30 59.5636 29.6957 59.9257 29.1452C60.7663 27.8701 60.1431 26.146 58.6072 25.523C58.3756 25.4215 57.6801 25.1318 57.0571 24.8855C56.4484 24.6247 55.8978 24.3059 55.8544 24.1755C55.7965 24.0451 55.6952 23.0164 55.637 21.9008C55.4923 19.5391 55.2749 18.5828 54.4491 16.9456C53.7969 15.6271 52.3047 13.9464 51.1457 13.1785C49.1461 11.86 46.3062 11.4833 43.7563 12.1787C42.7276 12.454 39.9603 13.7001 39.6995 14.0043C39.6124 14.1058 37.8883 14.9316 37.2362 15.1779C36.6277 15.4242 35.0918 15.4098 34.6429 15.1634C33.5418 14.5839 32.2956 12.6859 31.18 9.87499C30.4845 8.13634 29.224 5.81815 28.3112 4.63005C27.4563 3.5144 25.4714 1.68881 25.1091 1.68881C25.0077 1.68881 24.9208 1.61637 24.9208 1.54393C24.9208 1.457 24.7904 1.39904 24.631 1.39904C24.4717 1.39904 24.3413 1.3266 24.3413 1.25415C24.3413 1.16722 24.2398 1.10926 24.1239 1.10926C24.008 1.10926 23.7907 1.05131 23.6458 0.964374C22.1534 0.124021 18.5892 -0.252688 16.2999 0.181977Z" fill="white"/>
<path d="M78.8106 25.3522L78.2439 24.9743C79.6852 22.6513 81.1404 20.2728 82.6096 17.8382H82.6936L83.722 18.2997L83.827 18.7827C82.6796 21.0496 81.2524 23.2042 79.5453 25.2472L78.8106 25.3522ZM72.1362 24.8693C71.6744 24.4913 71.4436 24.0364 71.4436 23.5051L71.5905 23.3791V19.9791H71.0658L68.0854 23.757H67.4767L66.7211 23.0854V22.7075L67.4137 21.6579L68.2952 21.0496L70.73 17.3761H69.7435C68.4841 17.9499 67.1828 18.4048 65.8396 18.7403L65.084 18.1946L65 17.7749C66.791 16.9773 68.771 16.4525 70.9398 16.2006L71.0867 15.1725L70.646 13.9343C69.5546 13.5003 68.6031 12.766 67.7915 11.7301L67.3927 10.7857L68.0854 10.4919L68.3792 10.6388L69.6595 12.3391L70.8559 13.1576C70.8559 13.6615 71.0587 14.0531 71.4645 14.3331L72.2831 14.6896L72.6609 15.7182L73.3955 15.8442L75.4104 15.3612H76.9216L77.3834 15.1725C77.9851 13.7313 78.6427 12.3319 79.3564 10.9749L80.0909 10.849L80.9515 11.5206V11.8979C79.972 13.4513 79.0415 15.0322 78.16 16.6418L77.7612 16.7463L76.6488 16.2221C75.4454 16.5719 74.1931 16.8866 72.8918 17.1666L72.7449 18.2155C73.4445 19.111 74.305 19.769 75.3265 20.1887L76.271 20.5457L76.4179 20.9654L75.4944 21.3433L73.1436 20.4197L72.9967 21.3224L73.1017 21.4693V23.6728L73.2276 24.3863C73.1017 24.834 72.7379 24.9952 72.1362 24.8693ZM68.0854 10.1773L67.9804 9.61015C69.0858 8.25314 70.4081 7.04955 71.9473 6H72.7239L73.5005 6.54627V6.73493C71.8633 8.03642 70.1562 9.19761 68.3792 10.2191L68.0854 10.1773ZM79.2094 20.3355L78.5378 20.0418V19.0973L81.7281 14.48H82.3158L83.0924 15.0257V15.403C81.861 17.1803 80.5667 18.8245 79.2094 20.3355ZM74.319 13.766L73.6684 13.4304L73.5214 13.0525L71.8633 12.5487L71.8214 12.5069V11.2896L71.3596 9.92538L71.7794 9.75701L72.7869 10.2191L73.4375 11.877H74.0042L75.1376 9.33732L75.4734 9.25373L76.25 9.67343L76.3549 10.3242C76.0331 11.5272 75.4664 12.6466 74.6549 13.6824L74.319 13.766ZM91.9496 24.6382C90.6063 24.4985 89.466 23.8615 88.5285 22.7284L87.6889 20.7976V16.7254L88.5285 11.4991H89.4939L90.1446 12.5696C89.7808 13.563 89.5289 14.5988 89.389 15.6764L89.8088 15.886L94.7411 14.2698V13.8502L94.3004 12.8848V11.3946C94.8041 10.1069 95.6297 8.96657 96.7771 7.97313L97.7216 7.53254H99.4426C100.366 7.82627 101.15 8.4 101.793 9.25373C102.297 9.96717 102.654 10.751 102.864 11.6042V13.4304C102.514 14.6334 101.835 15.6973 100.828 16.6209C100.184 17.3343 99.4007 17.6209 98.4771 17.4812L97.4067 16.3057C96.917 16.0257 96.3853 15.7743 95.8116 15.5504C93.6707 16.2639 91.4599 16.8722 89.1791 17.3761L89.0742 18.4466V19.7272L89.1791 19.8316V21.3433C89.5989 22.1964 90.2076 22.7982 91.0051 23.1481L91.3199 23.2531H93.125C94.4123 22.9033 95.5947 22.4066 96.6721 21.763L96.882 21.3433H97.6166L98.0574 21.5528L98.4771 22.5182C96.91 23.5122 95.2379 24.2185 93.4608 24.6382H91.9496ZM99.9673 15.1301C100.681 14.4866 101.185 13.7379 101.479 12.8848V11.6042C101.339 10.6806 100.877 9.86209 100.093 9.14866C99.7295 8.85493 99.2957 8.74269 98.792 8.81254C98.1623 8.96657 97.6306 9.28836 97.1968 9.77851C96.4133 10.7158 95.9515 11.8209 95.8116 13.0943L96.1264 13.7451L97.3018 14.3749L97.6166 15.1301L97.9524 15.2352L99.0229 14.9206L99.8624 15.2352L99.9673 15.1301ZM115.079 25.4991L114.114 24.9534L114.009 24.5331L114.219 23.7779V20.2305L114.114 20.126V18.8454L113.253 15.7182C113.533 15.3684 113.925 15.2633 114.429 15.403L114.974 15.7182C115.324 16.9355 115.611 18.1881 115.835 19.4752V20.6716L115.94 20.7761V22.2669L115.835 22.8125L115.94 23.1272L115.835 23.5678L116.15 24.5331L115.835 25.289L115.079 25.4991ZM116.905 20.2305L116.36 19.8107V19.4752C117.367 18.3278 118.263 17.1104 119.046 15.8233L120.012 13.5773L119.592 13.3463L119.487 13.4722H118.186C114.604 13.9618 111.238 14.8925 108.09 16.2639C107.656 15.9702 107.439 15.5713 107.439 15.0675C110.672 13.7105 114.079 12.7797 117.661 12.2758H120.347L121.523 12.8215L121.733 13.8919C121.019 15.9767 119.837 17.8728 118.186 19.5803L117.556 20.2305H117.22L117.115 20.126L116.905 20.2305ZM127.736 25.52L127.211 25.3099L127.001 24.4496C129.253 20.0836 131.437 15.6412 133.55 11.1218L134.41 10.9116L135.145 11.2263L135.249 12.0663C132.857 16.3755 130.562 20.7552 128.365 25.2048L127.736 25.52ZM146.751 25.7719C146.318 25.7719 146.066 25.5899 145.996 25.2263L146.563 24.2603H145.555C144.716 24.6943 143.883 24.911 143.058 24.911L142.386 24.1343C143.911 23.7146 145.583 23.1552 147.402 22.4555V21.3433L146.373 20.9863L144.757 21.5952L143.981 21.0072V20.7552C145.114 19.9439 146.038 18.9087 146.751 17.649V16.9564H145.996L143.981 17.1875L143.498 17.0406C141.707 19.2651 140.322 21.5463 139.342 23.883L138.524 23.9875L138.062 23.0221C139.587 20.4334 141.287 17.6913 143.162 14.7946H142.26L140.287 15.3194C139.853 15.0955 139.602 14.8084 139.531 14.4585L143.351 13.1152L143.603 12.8639V11.2687L143.058 10.597H142.407L140.959 10.9534L140.287 10.366V10.1558L142.806 9.12776L142.953 8.33015L142.868 7.88955L143.414 7.80537L145.114 8.60299L146.017 8.22507C146.772 8.44895 147.5 8.86866 148.2 9.48418L148.283 9.69433L147.108 11.877H147.927L148.724 11.751L149.165 12.1499V12.36C148.087 12.9899 146.891 13.5212 145.576 13.9552L144.443 15.9278L146.017 16.0746L146.416 15.9702C147.185 15.9702 147.857 16.1731 148.431 16.5785L148.514 17.1451L147.003 19.7272L147.192 20.2937L148.493 21.2173L149.018 21.763L149.165 22.6442C148.759 23.7218 148.13 24.7295 147.276 25.6669L146.751 25.7719ZM158.043 24.911C156.84 24.0854 155.791 23.043 154.895 21.7839H154.119L152.565 24.4496L151.978 24.6173L151.432 24.3654L151.327 23.6937C152.335 22.5045 153.02 21.0842 153.384 19.4328C152.587 18.4537 152.027 17.4603 151.705 16.4525L152.166 16.2848L153.069 16.7887L153.72 17.7749L154.119 17.3134V17.1033L154.937 13.4722L153.72 13.1367L152.019 13.9761C151.796 14.6478 151.677 15.2215 151.663 15.6973H151.495L150.467 15.1093L150.446 15.0884V12.6746L150.572 12.1922L150.446 12.0448V10.3242L150.55 10.1773V8.39284L151.033 8.22507L151.831 8.85492L151.978 9.44239L151.684 11.2478L152.04 12.3809H152.859L155.042 12.1499L155.147 12.2758H156.721L158.001 12.9266L158.127 13.4513L157.33 13.5355L156.469 13.1994C155.923 15.4943 155.434 17.7821 155 20.0627C155.797 21.3081 156.686 22.5325 157.665 23.7361L159.135 24.0925L159.303 24.7015C159.023 24.9254 158.603 24.9952 158.043 24.911ZM145.702 11.4991L146.458 9.69433L145.618 9.46329L144.61 9.7994V11.1427L144.8 11.751H145.513L145.702 11.4991ZM165.516 25.4567L164.739 24.806V24.3027L164.991 24.0508H167.761L168.118 23.9248L168.622 24.0508L169.503 23.7988L169.944 23.043V21.6579L169.188 21.1749L167.132 21.5528L166.124 20.7552V20.5666L166.628 20.2519H168.769L169.713 19.9576V19.0346L169.252 18.111C168.398 18.0269 167.684 17.726 167.111 17.2084L167.047 16.6836L169.273 14.2072H168.097L166.376 14.5845L165.243 14.1648L164.445 15.634L163.753 15.7182L163.081 14.8155V13.64L163.857 11.2263V9.86209C164.123 9.51224 164.445 9.41433 164.823 9.56836C165.271 10.1003 165.837 10.366 166.523 10.366L166.649 10.24H168.16L168.769 9.92538L168.916 9.4006L168.307 7.02866C168.559 6.72119 168.895 6.63702 169.314 6.77672L170.133 7.57433L170.238 8.26687L170.112 8.77075L170.406 9.69433L171.245 9.84119L171.35 9.71522H173.218L175.842 9.21134L176.849 9.65254L176.954 10.8066L176.367 13.7242L175.38 13.9552L174.876 13.64L174.751 12.8848C175.1 12.3809 175.226 11.7302 175.128 10.9325L174.037 10.6179L173.869 10.7648H172.4L165.431 11.8143L165.096 13.2203L165.956 13.4096L173.03 12.4018L173.659 12.8215V13.1785C172.791 13.3606 171.952 13.717 171.141 14.249L170.322 15.3403H170.007L169.524 16.7887L170.784 16.9355L172.799 16.2639L173.03 15.7809L172.757 15.0675C172.994 14.8997 173.282 14.8436 173.617 14.8997L175.191 16.4525V16.8722L174.939 17.9009L173.89 18.0896L173.512 17.754H172.127L171.098 18.1528L170.994 19.5588L171.896 20.0209L172.924 19.643L174.058 20.1887L174.142 20.7761L173.764 21.0705H171.854C171.448 21.4758 171.245 21.9516 171.245 22.4973L171.623 23.5887L171.854 23.8197H175.296L175.422 23.6937H177.458L178.234 24.1976V24.7851C177.563 25.163 176.751 25.3033 175.8 25.2048L175.422 24.9534H173.554L173.197 25.0794L172.861 24.9534L172.169 25.0794L171.623 24.9319L171.476 25.0794H169.252L167.068 25.4567H165.516Z" fill="white"/>
</g>
<defs>
<clipPath id="clip0_434_2">
<rect width="178.23" height="30" fill="white"/>
</clipPath>
</defs>
</svg>
